<?xml version="1.0" encoding="UTF-8" standalone="no"?>
<!DOCTYPE svg PUBLIC "-//W3C//DTD SVG 1.1//EN" "http://www.w3.org/Graphics/SVG/1.1/DTD/svg11.dtd">
<!--suppress ALL -->
<svg width="100%" height="100%" viewBox="0 0 3000 3000" version="1.1" xmlns="http://www.w3.org/2000/svg" xmlns:xlink="http://www.w3.org/1999/xlink" xml:space="preserve" xmlns:serif="http://www.serif.com/" style="fill-rule:evenodd;clip-rule:evenodd;stroke-linecap:round;stroke-linejoin:round;stroke-miterlimit:1.5;">
    <g transform="matrix(0.999922,0.0125052,-0.0125052,0.999922,59.6586,10.3627)">
        <path d="M1864.08,2073.3C1844.2,2073.3 1814.71,2090.28 1805.45,2108.55C1795.64,2127.9 1773.33,2153.53 1781.41,2177.23C1781.51,2177.51 1963.65,2317.49 1989.77,2343.61C1993.42,2347.26 1998.49,2352.06 2001.13,2356.57C2032,2409.3 2015.38,2478.92 2046.6,2525.75C2069.98,2560.81 2110.19,2596.02 2147.47,2614.66C2163.22,2622.53 2188.95,2638 2199.59,2648.64C2200.2,2649.26 2203.08,2648.64 2202.2,2648.64C2195.38,2648.64 2197.72,2647.03 2189.55,2640.5" style="fill:none;stroke:rgb(24,136,209);stroke-width:116.67px;"/>
    </g>
    <g transform="matrix(1.63272,1.54314,-0.470717,0.498043,-13.6241,-1328.3)">
        <rect x="1128.26" y="1698.68" width="551.441" height="368.801" style="fill:rgb(24,136,209);stroke:rgb(24,136,209);stroke-width:70.25px;"/>
    </g>
    <g transform="matrix(0.697445,-0.716639,0.716639,0.697445,-456.475,1056.65)">
        <path d="M833.551,969.957C833.551,950.929 818.103,935.48 799.075,935.48L730.122,935.48C711.094,935.48 695.646,950.929 695.646,969.957L695.646,1170.82C695.646,1189.84 711.094,1205.29 730.122,1205.29L799.075,1205.29C818.103,1205.29 833.551,1189.84 833.551,1170.82L833.551,969.957Z" style="fill:rgb(24,136,209);stroke:rgb(24,136,209);stroke-width:116.67px;"/>
    </g>
    <path d="M2527.71,2422.38C2527.71,2377.88 2478.14,2332.62 2466.68,2287.08C2439.2,2177.92 2460.2,2068.6 2409.3,1967.23C2388.57,1925.93 2342.02,1908.31 2321.95,1865.86C2305.81,1831.72 2294.62,1782.5 2259.5,1770.35C2257.88,1769.79 2252.54,1764.67 2252.54,1763.51" style="fill:none;stroke:rgb(24,136,209);stroke-width:116.67px;"/>
    <g transform="matrix(1.87982,0,0,2.06353,-1368.58,-1724.8)">
        <ellipse cx="1525.99" cy="1562.76" rx="718.153" ry="654.22" style="fill:none;stroke:rgb(24,136,209);stroke-width:147.77px;"/>
    </g>
    <g transform="matrix(1.07977,1.11566,-0.472484,0.457285,410.921,-1378.18)">
        <path d="M2295.74,1271.73C2295.74,1246.75 2287.14,1226.47 2276.57,1226.47L1664.31,1226.47C1653.73,1226.47 1645.14,1246.75 1645.14,1271.73L1645.14,1362.27C1645.14,1387.25 1653.73,1407.53 1664.31,1407.53L2276.57,1407.53C2287.14,1407.53 2295.74,1387.25 2295.74,1362.27L2295.74,1271.73Z" style="fill:rgb(24,136,209);stroke:rgb(24,136,209);stroke-width:97.85px;"/>
    </g>
    <g transform="matrix(3.3812,-3.43661,1.23695,1.21701,-3813.33,4024.79)">
        <rect x="1212.65" y="858.248" width="18.218" height="185.98" style="fill:rgb(24,136,209);"/>
    </g>
    <g transform="matrix(0.593318,-0.56992,0.692744,0.721184,197.337,870.061)">
        <path d="M1037.98,695.546L1071.51,841.41L1004.45,841.41L1037.98,695.546Z" style="fill:rgb(24,136,209);"/>
    </g>
</svg>
